<svg xmlns="http://www.w3.org/2000/svg" width="34.43" height="30.987" viewBox="0 0 34.43 30.987">
  <g id="Icon_material-photo-camera" data-name="Icon material-photo-camera" transform="translate(-3 -3)">
    <path id="Path_6" data-name="Path 6" d="M24.218,18.709A5.509,5.509,0,1,1,18.709,13.2,5.509,5.509,0,0,1,24.218,18.709Z" transform="translate(1.506 1.506)" fill="#fff"/>
    <path id="Path_7" data-name="Path 7" d="M15.051,3,11.9,6.443H6.443A3.453,3.453,0,0,0,3,9.886V30.544a3.453,3.453,0,0,0,3.443,3.443H33.987a3.453,3.453,0,0,0,3.443-3.443V9.886a3.453,3.453,0,0,0-3.443-3.443H28.53L25.38,3Zm5.165,25.823a8.608,8.608,0,1,1,8.608-8.608A8.611,8.611,0,0,1,20.215,28.823Z" fill="#fff"/>
  </g>
</svg>
