<svg id="Capa_1" enable-background="new 0 0 512.001 512.001" height="512" viewBox="0 0 512.001 512.001" width="512" xmlns="http://www.w3.org/2000/svg"><g><path d="m422.755 4.393c-5.853-5.854-15.357-5.858-21.213 0l-354.702 354.701c-.006.007-.014.012-.02.019-1.652 1.653-2.931 3.787-3.623 5.864l-42.427 127.279c-1.797 5.39-.394 11.332 3.624 15.35 4.039 4.039 9.989 5.412 15.35 3.624l127.279-42.426c2.195-.73 4.34-2.101 5.863-3.624l354.721-354.721c5.858-5.858 5.858-15.355 0-21.213zm-280.475 428.967-63.64-63.64 269.869-269.868 63.64 63.64zm-78.297-35.872 50.53 50.53-75.795 25.264zm369.378-255.209-63.64-63.64 42.427-42.427 63.64 63.64z"/><path d="m359.115 152.885c-5.857-5.858-15.355-5.858-21.213 0l-206.228 206.229c-5.858 5.858-5.858 15.355 0 21.213 5.857 5.858 15.355 5.859 21.213 0l206.229-206.229c5.857-5.858 5.857-15.355-.001-21.213z"/></g></svg>