<svg id="Capa_1" enable-background="new 0 0 512 512" height="512" viewBox="0 0 512 512" width="512" xmlns="http://www.w3.org/2000/svg"><g><path d="m422.751 4.398c-5.863-5.863-15.352-5.863-21.215 0l-53.033 53.033 106.068 106.066 53.033-53.033c5.861-5.863 5.861-15.35 0-21.213z"/><path d="m57.426 348.507 106.068 106.066 269.864-269.862-106.067-106.068zm301.685-195.616c5.863 5.863 5.863 15.35 0 21.213l-206.225 206.224c-5.863 5.863-15.35 5.863-21.213 0s-5.863-15.35 0-21.213l206.225-206.224c5.864-5.863 15.35-5.863 21.213 0z"/><path d="m40.263 373.771-39.496 118.485c-1.791 5.396-.394 11.332 3.625 15.35 4.019 4.019 9.955 5.418 15.352 3.625l118.486-39.494z"/></g></svg>