<svg xmlns="http://www.w3.org/2000/svg" width="61.614" height="87.268" viewBox="0 0 61.614 87.268">
  <title>logoff</title>
  <g id="Layer_2" data-name="Layer 2">
    <g id="Layer_1-2" data-name="Layer 1">
      <path d="M41.693,82.33,22.954,72.695a1.015,1.015,0,0,1,.115-1.856l7.909-2.9a4.48,4.48,0,0,1,3.592.222l19.051,9.795,5.2-1.9A2.08,2.08,0,0,1,61.5,78.681c-.838,2.435-1.834,5.33-2.362,6.862a1.644,1.644,0,0,1-1.507,1.109l-20.918.615a1.5,1.5,0,0,1-.561-2.907ZM0,44.069V32.16c0-.076.838-8.094,3.705-13.329A37.135,37.135,0,0,1,7.346,13.4,39.638,39.638,0,0,1,10.52,9.906C16.385,4.166,24.143,0,32.207,0,43.433.108,54.856,7.6,57.178,16.014A19.055,19.055,0,0,1,57.825,21V66.541A2.285,2.285,0,0,1,54.593,68.5l-9.658-5.021c-1.067-.64-1.121-.8-1.191-1.963V44.069h0V15.941A21.379,21.379,0,0,0,42.11,9.449C28.161,9.2,14.169,23.03,14.082,37.188V82.653a2.286,2.286,0,0,1-3.222,1.968L1.2,79.66c-1.075-.637-1.131-.8-1.2-1.967V44.069Z" style="fill-rule: evenodd"/>
    </g>
  </g>
</svg>
