<svg id="Layer_1" data-name="Layer 1" xmlns="http://www.w3.org/2000/svg" viewBox="0 0 3138.14 1209.68"><defs><style>.cls-1{fill:#fff021;}.cls-2{font-size:180px;font-family:Montserrat-Bold, Montserrat;font-weight:700;}</style></defs><rect class="cls-1" x="2132.14" width="1006" height="1083"/><path d="M425.2,208.41q23.49,0,41.51,9a67.13,67.13,0,0,1,28,25.24A64.49,64.49,0,0,1,501,256.19V153.6a49.9,49.9,0,0,0-49.84-49.84h-89.8V55.39A55.52,55.52,0,0,0,305.93-.06H201.7a55.51,55.51,0,0,0-55.45,55.45v48.37H56.44A49.89,49.89,0,0,0,6.61,153.6V256.34a69.37,69.37,0,0,1,6.5-14.25,71.43,71.43,0,0,1,28-26.57q17.82-9.59,40.07-9.58a84.18,84.18,0,0,1,33.89,6.59,68,68,0,0,1,25.44,18.95l-21.43,19.78q-14.62-16.89-36.25-16.89a48.21,48.21,0,0,0-23.9,5.87,41.75,41.75,0,0,0-16.38,16.38,51.57,51.57,0,0,0,0,47.79,41.88,41.88,0,0,0,16.38,16.38,48.21,48.21,0,0,0,23.9,5.87q21.63,0,36.25-17.1l21.43,19.77A66.78,66.78,0,0,1,115,348.49a84.67,84.67,0,0,1-34,6.59q-22,0-39.86-9.57a71.46,71.46,0,0,1-28-26.58,69.37,69.37,0,0,1-6.5-14.25v95.54a49.89,49.89,0,0,0,49.83,49.83H451.18A49.89,49.89,0,0,0,501,400.21V304.84a64.26,64.26,0,0,1-6.29,13.58,67,67,0,0,1-28,25.23q-18,9-41.51,9H359.7V208.41Zm-240.78-153A17.3,17.3,0,0,1,201.7,38.11H305.93a17.3,17.3,0,0,1,17.28,17.28v48.37H184.42ZM294.19,352.61,294,266.09l-42.43,71.28h-15L194.28,268v84.66H163V208.41h27.6l54,89.61,53.15-89.61h27.4l.41,144.2ZM458.06,247.86q-12.87-12-34.5-12.05H393.07v89.4h30.49q21.63,0,34.5-12t12.88-32.65Q470.94,259.91,458.06,247.86Z" transform="translate(512.14 211)"/><text class="cls-2" transform="translate(515.04 832.6)">JOBS</text></svg>