<svg xmlns="http://www.w3.org/2000/svg" width="29.127" height="26.829" viewBox="0 0 29.127 26.829">
  <title>savebutton2</title>
  <g id="Layer_2" data-name="Layer 2">
    <g id="Layer_1-2" data-name="Layer 1">
      <g>
        <path d="M27.164,3.369a8.954,8.954,0,0,0-12.6-1.4A8.962,8.962,0,0,0,2.624,15.3l11.23,11.23a1.017,1.017,0,0,0,.71.3,1,1,0,0,0,.71-.3L26.5,15.3A8.957,8.957,0,0,0,27.164,3.369Zm-2.08,10.52-10.52,10.52L4.044,13.889a6.965,6.965,0,0,1,9.82-9.88.984.984,0,0,0,1.4,0,6.965,6.965,0,0,1,9.82,9.88Z"/>
        <path d="M25.084,13.889l-10.52,10.52L4.044,13.889a6.965,6.965,0,0,1,9.82-9.88.984.984,0,0,0,1.4,0,6.965,6.965,0,0,1,9.82,9.88Z"/>
      </g>
    </g>
  </g>
</svg>
