<?xml version="1.0" encoding="utf-8"?>
<!-- Generator: Adobe Illustrator 25.0.1, SVG Export Plug-In . SVG Version: 6.00 Build 0)  -->
<svg version="1.1" id="Layer_1" xmlns="http://www.w3.org/2000/svg" xmlns:xlink="http://www.w3.org/1999/xlink" x="0px" y="0px"
	 viewBox="0 0 200 200" style="enable-background:new 0 0 200 200;" xml:space="preserve">
<style type="text/css">
	.st0{fill:#FFFFFF;}
</style>
<g>
	<g id="_Path_">
		<path class="st0" d="M165.7,191.4H34.3c-15.8,0-28.6-12.8-28.6-28.6v-33.3c0-5.6,4.5-10.1,10.1-10.1s10.1,4.5,10.1,10.1v33.3
			c0,4.6,3.8,8.4,8.4,8.4h131.3c4.6,0,8.4-3.8,8.4-8.4v-33.3c0-5.6,4.5-10.1,10.1-10.1c5.6,0,10.1,4.5,10.1,10.1v33.3
			C194.3,178.6,181.4,191.4,165.7,191.4z"/>
	</g>
	<g id="_Path_2">
		<path class="st0" d="M100.2,135.2c-5.6,0-10.1-4.5-10.1-10.1V24c0-5.6,4.5-10.1,10.1-10.1s10.1,4.5,10.1,10.1v101
			C110.3,130.6,105.8,135.2,100.2,135.2z"/>
	</g>
	<g id="_Path_3">
		<path class="st0" d="M54.4,74.5c-2.6,0-5.2-1-7.1-3c-3.9-3.9-3.9-10.3,0-14.3l45.8-45.8c3.9-3.9,10.3-3.9,14.3,0l45.8,45.8
			c3.9,3.9,3.9,10.3,0,14.3c-3.9,3.9-10.3,3.9-14.3,0L100.2,33L61.6,71.6C59.6,73.6,57,74.5,54.4,74.5z"/>
	</g>
</g>
</svg>
