<?xml version="1.0" encoding="utf-8"?>
<!-- Generator: Adobe Illustrator 25.0.1, SVG Export Plug-In . SVG Version: 6.00 Build 0)  -->
<svg version="1.1" id="Laag_1" xmlns="http://www.w3.org/2000/svg" xmlns:xlink="http://www.w3.org/1999/xlink" x="0px" y="0px"
	 viewBox="0 0 569.5 153.7" style="enable-background:new 0 0 569.5 153.7;" xml:space="preserve">
<style type="text/css">
	.st0{fill:#FDEE21;}
	.st1{enable-background:new    ;}
</style>
<rect class="st0" width="569.5" height="153.7"/>
<g>
	<path d="M310.2,61.5c2.3,0,4.4,0.4,6.2,1.3c1.7,0.8,3.2,2.1,4.2,3.7c0.4,0.6,0.7,1.3,0.9,2V53.3c0-4.1-3.3-7.4-7.4-7.4h-13.3v-7.2
		c0-4.5-3.7-8.2-8.2-8.2H277c-4.5,0-8.2,3.7-8.2,8.2v7.2h-13.4c-4.1,0-7.4,3.3-7.4,7.4v15.3c0.2-0.7,0.6-1.5,1-2.1
		c1-1.7,2.4-3,4.2-4s3.7-1.4,6-1.4c1.7,0,3.4,0.3,5,1c1.5,0.6,2.8,1.6,3.8,2.8l-3.2,2.9c-1.4-1.7-3.2-2.5-5.4-2.5
		c-1.2,0-2.5,0.3-3.6,0.9c-1,0.6-1.9,1.4-2.4,2.4c-1.2,2.2-1.2,4.9,0,7.1c0.6,1,1.4,1.9,2.4,2.4c1.1,0.6,2.3,0.9,3.6,0.9
		c2.1,0,3.9-0.8,5.4-2.5l3.2,2.9c-1,1.2-2.3,2.2-3.8,2.9c-1.6,0.7-3.3,1-5.1,1c-2.2,0-4.2-0.5-5.9-1.4s-3.2-2.3-4.2-4
		c-0.4-0.7-0.7-1.4-1-2.1V90c0,4.1,3.3,7.4,7.4,7.4H314c4.1,0,7.4-3.3,7.4-7.4V75.8c-0.2,0.7-0.5,1.4-0.9,2c-1,1.6-2.4,2.9-4.2,3.7
		c-1.8,0.9-3.8,1.3-6.2,1.3h-9.7V61.5H310.2z M274.4,38.7c0-1.4,1.1-2.6,2.6-2.6h15.5c1.4,0,2.6,1.1,2.6,2.6v7.2h-20.6v-7.2H274.4z
		 M290.7,82.9V70l-6.3,10.6h-2.2l-6.3-10.3v12.6h-4.7V61.5h4.1l8,13.3l7.9-13.3h4.1l0.1,21.4H290.7z M315.1,67.3
		c-1.3-1.2-3-1.8-5.1-1.8h-4.5v13.3h4.5c2.1,0,3.8-0.6,5.1-1.8c1.3-1.2,1.9-2.8,1.9-4.8C317,70.1,316.4,68.5,315.1,67.3z"/>
	<g class="st1">
		<path d="M250.2,122.5c-1.1-0.5-1.9-1.1-2.6-2l2.4-2.9c1,1.4,2.2,2.1,3.5,2.1c1.8,0,2.6-1,2.6-3.1v-8.9h-6.6v-3.5h10.9v12.1
			c0,2.3-0.6,4-1.7,5.2c-1.1,1.1-2.8,1.7-5,1.7C252.4,123.2,251.3,122.9,250.2,122.5z"/>
		<path d="M268.5,121.9c-1.6-0.8-2.8-2-3.7-3.5c-0.9-1.5-1.3-3.1-1.3-5s0.4-3.5,1.3-5s2.1-2.6,3.7-3.5c1.6-0.8,3.3-1.3,5.3-1.3
			s3.7,0.4,5.2,1.3c1.5,0.8,2.8,2,3.7,3.5c0.9,1.5,1.3,3.1,1.3,5s-0.4,3.5-1.3,5s-2.1,2.6-3.7,3.5c-1.5,0.8-3.3,1.3-5.2,1.3
			S270.1,122.8,268.5,121.9z M276.8,118.7c0.9-0.5,1.6-1.2,2.1-2.1s0.8-1.9,0.8-3.1s-0.3-2.2-0.8-3.1s-1.2-1.6-2.1-2.1
			s-1.9-0.8-3-0.8s-2.1,0.3-3,0.8s-1.6,1.2-2.1,2.1s-0.8,1.9-0.8,3.1s0.3,2.2,0.8,3.1s1.2,1.6,2.1,2.1s1.9,0.8,3,0.8
			S275.9,119.2,276.8,118.7z"/>
		<path d="M303.6,114.8c0.6,0.8,0.9,1.8,0.9,2.9c0,1.6-0.6,2.9-1.9,3.8s-3.1,1.3-5.6,1.3h-9.7v-18.7h9.2c2.3,0,4,0.4,5.3,1.3
			c1.2,0.9,1.8,2.1,1.8,3.6c0,0.9-0.2,1.7-0.7,2.4s-1.1,1.3-1.8,1.7C302.1,113.5,302.9,114,303.6,114.8z M291.6,107.4v4.4h4.3
			c1.1,0,1.9-0.2,2.4-0.6s0.8-0.9,0.8-1.7c0-0.7-0.3-1.3-0.8-1.6c-0.5-0.4-1.4-0.5-2.4-0.5L291.6,107.4L291.6,107.4z M299.2,119
			c0.6-0.4,0.9-1,0.9-1.7c0-1.5-1.1-2.3-3.4-2.3h-5.1v4.6h5.1C297.8,119.6,298.7,119.4,299.2,119z"/>
		<path d="M309.6,122.6c-1.4-0.4-2.5-0.9-3.3-1.6l1.5-3.3c0.8,0.6,1.8,1.1,2.9,1.4c1.1,0.4,2.2,0.5,3.3,0.5c1.2,0,2.1-0.2,2.7-0.5
			c0.6-0.4,0.9-0.8,0.9-1.5c0-0.4-0.2-0.8-0.5-1.1c-0.3-0.3-0.8-0.5-1.3-0.7s-1.3-0.4-2.2-0.6c-1.4-0.3-2.6-0.7-3.5-1
			s-1.7-0.9-2.3-1.6c-0.7-0.7-1-1.8-1-3c0-1.1,0.3-2.1,0.9-3s1.5-1.6,2.7-2.1s2.6-0.8,4.3-0.8c1.2,0,2.4,0.1,3.5,0.4s2.1,0.7,3,1.2
			l-1.3,3.3c-1.7-1-3.5-1.5-5.2-1.5c-1.2,0-2.1,0.2-2.7,0.6s-0.9,0.9-0.9,1.5s0.3,1.1,1,1.4s1.7,0.6,3.1,0.9s2.6,0.7,3.5,1
			s1.7,0.9,2.3,1.6c0.7,0.7,1,1.7,1,3c0,1.1-0.3,2.1-0.9,2.9c-0.6,0.9-1.5,1.6-2.7,2.1s-2.6,0.8-4.4,0.8
			C312.4,123.2,311,123,309.6,122.6z"/>
	</g>
</g>
<g class="st1">
	<path d="M413.5,58.6h4c1.8,0,3.1,0.3,3.9,0.8s1.2,1.3,1.2,2.5c0,0.8-0.2,1.4-0.5,1.9c-0.4,0.5-0.8,0.8-1.4,0.9v0.1
		c0.8,0.2,1.4,0.5,1.8,1s0.5,1.2,0.5,2c0,1.2-0.4,2.1-1.3,2.7c-0.8,0.7-2,1-3.4,1h-4.8L413.5,58.6L413.5,58.6z M416.2,63.6h1.6
		c0.7,0,1.3-0.1,1.6-0.3c0.3-0.2,0.5-0.6,0.5-1.1s-0.2-0.8-0.5-1.1c-0.4-0.2-0.9-0.3-1.7-0.3h-1.4v2.8
		C416.3,63.6,416.2,63.6,416.2,63.6z M416.2,65.8v3.3h1.8c0.7,0,1.3-0.1,1.7-0.4c0.4-0.3,0.5-0.7,0.5-1.3c0-1.1-0.8-1.6-2.3-1.6
		H416.2z"/>
	<path d="M428,71.4h-2.7V57.8h2.7V71.4z"/>
	<path d="M439.7,66.5c0,1.6-0.4,2.8-1.3,3.7c-0.8,0.9-2,1.3-3.5,1.3c-0.9,0-1.8-0.2-2.5-0.6s-1.3-1-1.7-1.8s-0.6-1.7-0.6-2.7
		c0-1.6,0.4-2.8,1.2-3.7c0.8-0.9,2-1.3,3.5-1.3c0.9,0,1.8,0.2,2.5,0.6s1.3,1,1.7,1.8S439.7,65.4,439.7,66.5z M432.9,66.5
		c0,1,0.2,1.7,0.5,2.2s0.8,0.7,1.6,0.7c0.7,0,1.2-0.2,1.5-0.7s0.5-1.2,0.5-2.2s-0.2-1.7-0.5-2.2s-0.8-0.7-1.5-0.7s-1.2,0.2-1.5,0.7
		C433.1,64.8,432.9,65.5,432.9,66.5z"/>
	<path d="M444.4,66l1.2-1.5l2.7-3h3l-3.9,4.2l4.1,5.5h-3.1l-2.8-4l-1.1,0.9v3h-2.7V57.8h2.7v6.1L444.4,66L444.4,66z"/>
	<path d="M462.8,71.4H460V60.8h-3.5v-2.3h9.7v2.3h-3.5L462.8,71.4L462.8,71.4z"/>
	<path d="M472.4,71.5c-1.6,0-2.8-0.4-3.7-1.3c-0.9-0.9-1.3-2.1-1.3-3.7s0.4-2.9,1.2-3.8c0.8-0.9,2-1.3,3.4-1.3s2.5,0.4,3.2,1.2
		s1.2,1.9,1.2,3.3v1.3h-6.3c0,0.8,0.3,1.3,0.7,1.8c0.4,0.4,1,0.6,1.8,0.6c0.6,0,1.1-0.1,1.7-0.2c0.5-0.1,1.1-0.3,1.6-0.6v2.1
		c-0.5,0.2-1,0.4-1.5,0.5C473.8,71.5,473.2,71.5,472.4,71.5z M472,63.3c-0.6,0-1,0.2-1.3,0.5c-0.3,0.4-0.5,0.9-0.6,1.5h3.7
		c0-0.7-0.2-1.2-0.5-1.5S472.6,63.3,472,63.3z"/>
	<path d="M482.5,71.5c-3,0-4.6-1.7-4.6-5c0-1.7,0.4-2.9,1.2-3.8c0.8-0.9,2-1.3,3.6-1.3c1.1,0,2.1,0.2,3,0.7l-0.8,2.1
		c-0.4-0.2-0.8-0.3-1.2-0.4c-0.4-0.1-0.7-0.2-1.1-0.2c-1.4,0-2.1,1-2.1,3c0,1.9,0.7,2.9,2.1,2.9c0.5,0,1-0.1,1.4-0.2
		s0.9-0.4,1.3-0.6V71c-0.4,0.3-0.9,0.5-1.3,0.6C483.8,71.5,483.2,71.5,482.5,71.5z"/>
	<path d="M496.8,71.4h-2.7v-5.7c0-1.4-0.5-2.1-1.6-2.1c-0.7,0-1.3,0.3-1.6,0.8c-0.3,0.5-0.5,1.3-0.5,2.5v4.6h-2.7V57.8h2.7v2.8
		c0,0.2,0,0.7-0.1,1.5l-0.1,0.8h0.1c0.6-1,1.5-1.4,2.8-1.4c1.1,0,2,0.3,2.6,0.9c0.6,0.6,0.9,1.5,0.9,2.7v6.3H496.8z"/>
</g>
<g class="st1">
	<path d="M430.4,92.9h-0.9v-12h-4.2v-0.8h9.2v0.8h-4.2v12H430.4z"/>
	<path d="M440.1,93c-1.4,0-2.5-0.4-3.2-1.3s-1.2-2-1.2-3.6c0-1.5,0.4-2.7,1.1-3.6s1.8-1.4,3-1.4c1.1,0,2,0.4,2.6,1.2
		c0.6,0.8,1,1.8,1,3.2v0.7h-6.8c0,1.3,0.3,2.3,0.9,3s1.5,1,2.6,1c0.5,0,1,0,1.4-0.1s0.9-0.2,1.6-0.5v0.8c-0.5,0.2-1,0.4-1.5,0.5
		C441.1,93,440.6,93,440.1,93z M439.8,83.9c-0.9,0-1.6,0.3-2.2,0.9s-0.9,1.5-1,2.6h5.9c0-1.1-0.2-2-0.7-2.6
		C441.3,84.2,440.7,83.9,439.8,83.9z"/>
	<path d="M451.9,92.9l-0.2-1.5h-0.1c-0.5,0.6-1,1-1.5,1.3s-1.1,0.4-1.8,0.4c-0.9,0-1.7-0.2-2.2-0.7s-0.8-1.1-0.8-2s0.4-1.6,1.2-2.2
		s1.9-0.8,3.4-0.8l1.8-0.1v-0.6c0-0.9-0.2-1.6-0.6-2c-0.4-0.5-1-0.7-1.8-0.7c-0.9,0-1.8,0.2-2.7,0.7l-0.3-0.8c1-0.5,2.1-0.7,3.1-0.7
		s1.8,0.3,2.3,0.8s0.8,1.4,0.8,2.5v6.3L451.9,92.9L451.9,92.9z M448.4,92.2c1,0,1.8-0.3,2.4-0.9s0.9-1.4,0.9-2.4V88l-1.7,0.1
		c-1.3,0.1-2.3,0.3-2.9,0.6s-0.9,0.9-0.9,1.6c0,0.6,0.2,1.1,0.5,1.4C447.2,92.1,447.7,92.2,448.4,92.2z"/>
	<path d="M467.4,92.9v-6.2c0-0.9-0.2-1.6-0.5-2c-0.4-0.4-0.9-0.6-1.7-0.6c-1,0-1.7,0.3-2.2,0.8s-0.7,1.4-0.7,2.5V93h-0.9v-6.5
		c0-1.6-0.7-2.4-2.2-2.4c-1,0-1.7,0.3-2.2,0.9s-0.7,1.5-0.7,2.8V93h-0.9v-9.5h0.7l0.2,1.3h0.1c0.3-0.5,0.6-0.8,1.1-1.1
		c0.5-0.3,1-0.4,1.6-0.4c1.5,0,2.5,0.6,2.9,1.7l0,0c0.3-0.5,0.7-1,1.2-1.2c0.5-0.3,1.1-0.4,1.8-0.4c1,0,1.8,0.3,2.3,0.8
		s0.8,1.4,0.8,2.6V93L467.4,92.9L467.4,92.9L467.4,92.9z"/>
	<path d="M483,83.1c0,0.8-0.2,1.5-0.7,2s-1.2,0.9-2,1v0.1c1,0.1,1.8,0.5,2.3,1s0.8,1.2,0.8,2.1c0,1.2-0.4,2.1-1.2,2.8
		c-0.8,0.7-2,1-3.5,1c-1.3,0-2.4-0.2-3.4-0.7v-0.9c0.5,0.3,1,0.5,1.6,0.6s1.2,0.2,1.7,0.2c1.3,0,2.3-0.3,2.9-0.8s1-1.3,1-2.2
		c0-0.8-0.3-1.5-1-1.9c-0.7-0.5-1.6-0.7-2.9-0.7h-1.4v-0.8h1.4c1.1,0,1.9-0.3,2.5-0.8s0.9-1.2,0.9-2c0-0.7-0.3-1.3-0.8-1.7
		c-0.5-0.4-1.2-0.6-2-0.6c-0.6,0-1.2,0.1-1.7,0.3s-1.1,0.5-1.8,0.9l-0.4-0.6c0.5-0.4,1.1-0.7,1.8-1c0.7-0.2,1.4-0.4,2.1-0.4
		c1.2,0,2.1,0.3,2.7,0.8C482.7,81.3,483,82.1,483,83.1z"/>
</g>
<g class="st1">
	<path d="M70.9,69.3h3.5c1.6,0,2.7,0.3,3.5,0.8c0.7,0.5,1.1,1.3,1.1,2.4c0,0.7-0.2,1.4-0.7,1.8s-1.1,0.8-2,0.9v0.1
		c1,0.2,1.8,0.5,2.3,1c0.5,0.5,0.7,1.2,0.7,2.1c0,1.2-0.4,2.1-1.2,2.7c-0.8,0.6-1.9,1-3.3,1h-3.9V69.3z M71.8,75h2.8
		c1.2,0,2.1-0.2,2.6-0.6c0.5-0.4,0.8-1,0.8-1.9c0-0.9-0.3-1.5-0.9-1.9c-0.6-0.4-1.5-0.6-2.8-0.6h-2.6V75z M71.8,75.8v5.5h3
		c2.4,0,3.5-1,3.5-2.9c0-1.8-1.2-2.6-3.7-2.6H71.8z"/>
	<path d="M85.6,72.4c0.4,0,0.8,0,1.3,0.1l-0.2,0.8c-0.4-0.1-0.8-0.1-1.2-0.1c-0.8,0-1.5,0.3-2,1c-0.5,0.7-0.8,1.6-0.8,2.6v5.2h-0.9
		v-9.5h0.7l0.1,1.7h0.1c0.4-0.7,0.8-1.2,1.3-1.5C84.5,72.6,85,72.4,85.6,72.4z"/>
	<path d="M96.7,77.3c0,1.6-0.4,2.8-1.1,3.6c-0.8,0.9-1.8,1.3-3.1,1.3c-0.8,0-1.6-0.2-2.2-0.6c-0.6-0.4-1.1-1-1.5-1.7
		c-0.3-0.8-0.5-1.6-0.5-2.6c0-1.6,0.4-2.8,1.1-3.6c0.8-0.9,1.8-1.3,3.1-1.3c1.3,0,2.3,0.4,3.1,1.3C96.3,74.6,96.7,75.8,96.7,77.3z
		 M89.2,77.3c0,1.3,0.3,2.3,0.9,3.1c0.6,0.7,1.4,1.1,2.4,1.1c1,0,1.9-0.4,2.4-1.1c0.6-0.7,0.9-1.8,0.9-3.1c0-1.3-0.3-2.3-0.9-3.1
		c-0.6-0.7-1.4-1.1-2.4-1.1s-1.9,0.4-2.4,1.1C89.5,75,89.2,76,89.2,77.3z"/>
	<path d="M106,82.1v-6.2c0-1-0.2-1.7-0.6-2.1c-0.4-0.4-1-0.7-1.9-0.7c-1.1,0-2,0.3-2.5,0.9s-0.8,1.5-0.8,2.8v5.2h-0.9v-9.5h0.7
		l0.2,1.3h0.1c0.6-1,1.7-1.5,3.3-1.5c2.2,0,3.2,1.2,3.2,3.5v6.2H106z"/>
	<path d="M116.5,82.1v-6.2c0-1-0.2-1.7-0.6-2.1c-0.4-0.4-1-0.7-1.9-0.7c-1.1,0-2,0.3-2.5,0.9s-0.8,1.5-0.8,2.8v5.2h-0.9v-9.5h0.7
		l0.2,1.3h0.1c0.6-1,1.7-1.5,3.3-1.5c2.2,0,3.2,1.2,3.2,3.5v6.2H116.5z"/>
	<path d="M124.3,82.3c-1.4,0-2.5-0.4-3.2-1.3s-1.2-2-1.2-3.6c0-1.5,0.4-2.7,1.1-3.6s1.8-1.4,3-1.4c1.1,0,2,0.4,2.6,1.2s1,1.8,1,3.2
		v0.7h-6.8c0,1.3,0.3,2.3,0.9,3s1.5,1,2.6,1c0.5,0,1,0,1.4-0.1c0.4-0.1,0.9-0.2,1.6-0.5v0.8c-0.5,0.2-1,0.4-1.5,0.5
		C125.4,82.2,124.9,82.3,124.3,82.3z M124.1,73.2c-0.9,0-1.6,0.3-2.2,0.9c-0.6,0.6-0.9,1.5-1,2.6h5.9c0-1.1-0.2-2-0.7-2.6
		C125.6,73.5,124.9,73.2,124.1,73.2z"/>
	<path d="M136.9,82.1v-6.2c0-1-0.2-1.7-0.6-2.1c-0.4-0.4-1-0.7-1.9-0.7c-1.1,0-2,0.3-2.5,0.9s-0.8,1.5-0.8,2.8v5.2h-0.9v-9.5h0.7
		l0.2,1.3h0.1c0.6-1,1.7-1.5,3.3-1.5c2.2,0,3.2,1.2,3.2,3.5v6.2H136.9z"/>
	<path d="M141.7,82.1h-0.9V68.5h0.9V82.1z"/>
	<path d="M144.8,70c0-0.6,0.2-0.8,0.6-0.8c0.2,0,0.3,0.1,0.4,0.2c0.1,0.1,0.2,0.4,0.2,0.6c0,0.3-0.1,0.5-0.2,0.6
		c-0.1,0.2-0.2,0.2-0.4,0.2C145,70.8,144.8,70.5,144.8,70z M145.8,82.1h-0.9v-9.5h0.9V82.1z"/>
	<path d="M147.7,86.4c-0.5,0-0.9-0.1-1.2-0.2v-0.8c0.4,0.1,0.8,0.2,1.1,0.2c0.9,0,1.3-0.5,1.3-1.5V72.6h0.9v11.3
		c0,0.8-0.2,1.4-0.6,1.8C148.9,86.2,148.4,86.4,147.7,86.4z M148.8,70c0-0.6,0.2-0.8,0.6-0.8c0.2,0,0.3,0.1,0.4,0.2
		c0.1,0.1,0.2,0.4,0.2,0.6c0,0.3-0.1,0.5-0.2,0.6c-0.1,0.2-0.2,0.2-0.4,0.2C149,70.8,148.8,70.5,148.8,70z"/>
	<path d="M158.9,79.6c0,0.9-0.3,1.5-1,2c-0.6,0.5-1.6,0.7-2.8,0.7c-1.3,0-2.3-0.2-3-0.6v-0.9c1,0.5,2,0.7,3,0.7
		c0.9,0,1.7-0.2,2.1-0.5c0.5-0.3,0.7-0.7,0.7-1.2c0-0.5-0.2-0.9-0.6-1.2s-1-0.6-1.9-1c-1-0.3-1.6-0.6-2-0.9
		c-0.4-0.2-0.7-0.5-0.9-0.8s-0.3-0.7-0.3-1.1c0-0.7,0.3-1.3,0.9-1.7c0.6-0.4,1.4-0.6,2.5-0.6c1,0,2,0.2,2.9,0.6l-0.3,0.8
		c-0.9-0.4-1.8-0.6-2.6-0.6c-0.8,0-1.4,0.1-1.8,0.4c-0.5,0.3-0.7,0.6-0.7,1.1c0,0.5,0.2,0.9,0.5,1.2c0.4,0.3,1,0.6,2.1,1
		c0.9,0.3,1.5,0.6,1.9,0.8c0.4,0.2,0.7,0.5,0.9,0.8C158.8,78.8,158.9,79.2,158.9,79.6z"/>
	<path d="M163.9,81.5c0.5,0,1,0,1.4-0.1v0.7c-0.4,0.1-0.9,0.2-1.5,0.2c-0.8,0-1.5-0.2-1.9-0.7c-0.4-0.4-0.6-1.2-0.6-2.1v-6.1H160
		v-0.5l1.4-0.4l0.4-2.2h0.4v2.3h2.8v0.8h-2.8v6c0,0.7,0.1,1.3,0.4,1.6C162.9,81.3,163.3,81.5,163.9,81.5z"/>
</g>
</svg>
