<svg xmlns="http://www.w3.org/2000/svg" width="29.124" height="26.824" viewBox="0 0 29.124 26.824">
  <title>savebutton</title>
  <g id="Layer_2" data-name="Layer 2">
    <g id="Layer_1-2" data-name="Layer 1">
      <path d="M14.562,26.824a.991.991,0,0,1-.707-.293L2.625,15.3A8.963,8.963,0,0,1,14.562,1.964,8.963,8.963,0,0,1,26.5,15.3l-11.23,11.23A1,1,0,0,1,14.562,26.824ZM8.963,2.007a6.958,6.958,0,0,0-4.924,11.88L14.562,24.41,25.084,13.887a6.963,6.963,0,1,0-9.82-9.875,1,1,0,0,1-1.406,0A6.943,6.943,0,0,0,8.963,2.007Z"/>
    </g>
  </g>
</svg>
